<mxfile host="app.diagrams.net" agent="Mozilla/5.0 (Windows NT 10.0; Win64; x64) AppleWebKit/537.36 (KHTML, like Gecko) Chrome/132.0.0.0 Safari/537.36 Edg/132.0.0.0" version="24.8.4">
  <diagram name="第 1 页" id="BAIrDELThEa30hd3QXzl">
    <mxGraphModel dx="4005" dy="2924" grid="1" gridSize="10" guides="1" tooltips="1" connect="1" arrows="1" fold="1" page="1" pageScale="1" pageWidth="827" pageHeight="1169" math="0" shadow="0">
      <root>
        <mxCell id="0" />
        <mxCell id="1" parent="0" />
        <mxCell id="IFX9tUCQLyoy-UFvelIa-1" value="" style="rounded=0;whiteSpace=wrap;html=1;" parent="1" vertex="1">
          <mxGeometry x="-82.5" y="-15" width="1295" height="610" as="geometry" />
        </mxCell>
        <mxCell id="IFX9tUCQLyoy-UFvelIa-2" value="&lt;h1&gt;Query Tool&lt;/h1&gt;" style="text;html=1;align=center;verticalAlign=middle;whiteSpace=wrap;rounded=0;" parent="1" vertex="1">
          <mxGeometry x="450" y="30" width="230" height="30" as="geometry" />
        </mxCell>
        <mxCell id="IFX9tUCQLyoy-UFvelIa-3" value="User" style="shape=umlActor;verticalLabelPosition=bottom;verticalAlign=top;html=1;outlineConnect=0;" parent="1" vertex="1">
          <mxGeometry x="30" y="260" width="30" height="60" as="geometry" />
        </mxCell>
        <mxCell id="IFX9tUCQLyoy-UFvelIa-5" value="React.js Website" style="rounded=1;whiteSpace=wrap;html=1;" parent="1" vertex="1">
          <mxGeometry x="210" y="260" width="120" height="60" as="geometry" />
        </mxCell>
        <mxCell id="IFX9tUCQLyoy-UFvelIa-9" value="" style="shape=flexArrow;endArrow=classic;startArrow=classic;html=1;rounded=0;entryX=0;entryY=0.493;entryDx=0;entryDy=0;entryPerimeter=0;" parent="1" edge="1" target="IFX9tUCQLyoy-UFvelIa-5">
          <mxGeometry width="100" height="100" relative="1" as="geometry">
            <mxPoint x="60" y="290" as="sourcePoint" />
            <mxPoint x="205.00000000000023" y="289.58" as="targetPoint" />
          </mxGeometry>
        </mxCell>
        <mxCell id="IFX9tUCQLyoy-UFvelIa-10" value="Server&lt;div&gt;Local Machine - Node.js hosting&lt;/div&gt;" style="rounded=1;whiteSpace=wrap;html=1;" parent="1" vertex="1">
          <mxGeometry x="490" y="260" width="190" height="60" as="geometry" />
        </mxCell>
        <mxCell id="IFX9tUCQLyoy-UFvelIa-11" value="Object Detection" style="rounded=1;whiteSpace=wrap;html=1;" parent="1" vertex="1">
          <mxGeometry x="840" y="130" width="120" height="60" as="geometry" />
        </mxCell>
        <mxCell id="l-MEXNuIdmN8-d6I6jXL-10" style="edgeStyle=orthogonalEdgeStyle;rounded=0;orthogonalLoop=1;jettySize=auto;html=1;" edge="1" parent="1" source="IFX9tUCQLyoy-UFvelIa-12" target="l-MEXNuIdmN8-d6I6jXL-6">
          <mxGeometry relative="1" as="geometry" />
        </mxCell>
        <mxCell id="IFX9tUCQLyoy-UFvelIa-12" value="Recommendation System" style="rounded=1;whiteSpace=wrap;html=1;" parent="1" vertex="1">
          <mxGeometry x="840" y="330" width="120" height="60" as="geometry" />
        </mxCell>
        <mxCell id="IFX9tUCQLyoy-UFvelIa-14" value="" style="shape=flexArrow;endArrow=classic;startArrow=classic;html=1;rounded=0;exitX=1;exitY=0.5;exitDx=0;exitDy=0;entryX=0;entryY=0.5;entryDx=0;entryDy=0;" parent="1" edge="1" target="IFX9tUCQLyoy-UFvelIa-10" source="IFX9tUCQLyoy-UFvelIa-5">
          <mxGeometry width="100" height="100" relative="1" as="geometry">
            <mxPoint x="341.0000000000002" y="290" as="sourcePoint" />
            <mxPoint x="486.0000000000002" y="290" as="targetPoint" />
          </mxGeometry>
        </mxCell>
        <mxCell id="IFX9tUCQLyoy-UFvelIa-15" value="API" style="text;html=1;align=center;verticalAlign=middle;whiteSpace=wrap;rounded=0;" parent="1" vertex="1">
          <mxGeometry x="383" y="250" width="60" height="30" as="geometry" />
        </mxCell>
        <mxCell id="IFX9tUCQLyoy-UFvelIa-16" value="&lt;span style=&quot;background-color: initial;&quot;&gt;=&amp;gt;&amp;nbsp;&lt;/span&gt;&lt;span style=&quot;background-color: initial;&quot;&gt;Image&lt;/span&gt;" style="text;html=1;align=center;verticalAlign=middle;whiteSpace=wrap;rounded=0;" parent="1" vertex="1">
          <mxGeometry x="80" y="250" width="100" height="30" as="geometry" />
        </mxCell>
        <mxCell id="IFX9tUCQLyoy-UFvelIa-17" value="" style="shape=flexArrow;endArrow=classic;startArrow=classic;html=1;rounded=0;exitX=1;exitY=0.5;exitDx=0;exitDy=0;entryX=0;entryY=0.5;entryDx=0;entryDy=0;" parent="1" source="IFX9tUCQLyoy-UFvelIa-10" edge="1" target="IFX9tUCQLyoy-UFvelIa-11">
          <mxGeometry width="100" height="100" relative="1" as="geometry">
            <mxPoint x="745.0000000000002" y="219.70999999999998" as="sourcePoint" />
            <mxPoint x="890.0000000000002" y="219.70999999999998" as="targetPoint" />
          </mxGeometry>
        </mxCell>
        <mxCell id="IFX9tUCQLyoy-UFvelIa-18" value="" style="shape=flexArrow;endArrow=classic;startArrow=classic;html=1;rounded=0;entryX=0;entryY=0.5;entryDx=0;entryDy=0;exitX=1;exitY=0.75;exitDx=0;exitDy=0;" parent="1" target="IFX9tUCQLyoy-UFvelIa-12" edge="1" source="IFX9tUCQLyoy-UFvelIa-10">
          <mxGeometry width="100" height="100" relative="1" as="geometry">
            <mxPoint x="695" y="303.29" as="sourcePoint" />
            <mxPoint x="890.0000000000002" y="249.99999999999997" as="targetPoint" />
          </mxGeometry>
        </mxCell>
        <mxCell id="IFX9tUCQLyoy-UFvelIa-19" value="&amp;lt;= Text" style="text;html=1;align=center;verticalAlign=middle;whiteSpace=wrap;rounded=0;" parent="1" vertex="1">
          <mxGeometry x="95" y="300" width="70" height="30" as="geometry" />
        </mxCell>
        <mxCell id="IFX9tUCQLyoy-UFvelIa-21" value="&lt;span style=&quot;background-color: initial;&quot;&gt;=&amp;gt;&amp;nbsp;&lt;/span&gt;&lt;span style=&quot;background-color: initial;&quot;&gt;Image&lt;/span&gt;" style="text;html=1;align=center;verticalAlign=middle;whiteSpace=wrap;rounded=0;" parent="1" vertex="1">
          <mxGeometry x="363" y="220" width="100" height="30" as="geometry" />
        </mxCell>
        <mxCell id="IFX9tUCQLyoy-UFvelIa-22" value="&amp;lt;= Text form OD &amp;amp; RS" style="text;html=1;align=center;verticalAlign=middle;whiteSpace=wrap;rounded=0;" parent="1" vertex="1">
          <mxGeometry x="378" y="320" width="70" height="30" as="geometry" />
        </mxCell>
        <mxCell id="IFX9tUCQLyoy-UFvelIa-23" value="&lt;span style=&quot;background-color: initial;&quot;&gt;=&amp;gt;&amp;nbsp;&lt;/span&gt;&lt;span style=&quot;background-color: initial;&quot;&gt;Image&lt;/span&gt;" style="text;html=1;align=center;verticalAlign=middle;whiteSpace=wrap;rounded=0;" parent="1" vertex="1">
          <mxGeometry x="680" y="170" width="100" height="30" as="geometry" />
        </mxCell>
        <mxCell id="IFX9tUCQLyoy-UFvelIa-24" value="&amp;lt;= Text" style="text;html=1;align=center;verticalAlign=middle;whiteSpace=wrap;rounded=0;" parent="1" vertex="1">
          <mxGeometry x="770" y="230" width="70" height="30" as="geometry" />
        </mxCell>
        <mxCell id="IFX9tUCQLyoy-UFvelIa-25" value="&lt;span style=&quot;background-color: initial;&quot;&gt;=&amp;gt; Text from OD&lt;/span&gt;" style="text;html=1;align=center;verticalAlign=middle;whiteSpace=wrap;rounded=0;" parent="1" vertex="1">
          <mxGeometry x="690" y="350" width="100" height="30" as="geometry" />
        </mxCell>
        <mxCell id="IFX9tUCQLyoy-UFvelIa-26" value="&amp;lt;= Text" style="text;html=1;align=center;verticalAlign=middle;whiteSpace=wrap;rounded=0;" parent="1" vertex="1">
          <mxGeometry x="770" y="275" width="70" height="30" as="geometry" />
        </mxCell>
        <mxCell id="IFX9tUCQLyoy-UFvelIa-27" value="OD: Object Detection Model" style="text;html=1;align=center;verticalAlign=middle;whiteSpace=wrap;rounded=0;" parent="1" vertex="1">
          <mxGeometry x="-20" y="420" width="165" height="30" as="geometry" />
        </mxCell>
        <mxCell id="IFX9tUCQLyoy-UFvelIa-28" value="RS: Recommendation System Model" style="text;html=1;align=center;verticalAlign=middle;whiteSpace=wrap;rounded=0;" parent="1" vertex="1">
          <mxGeometry x="-20" y="460" width="215" height="30" as="geometry" />
        </mxCell>
        <mxCell id="l-MEXNuIdmN8-d6I6jXL-4" style="edgeStyle=orthogonalEdgeStyle;rounded=0;orthogonalLoop=1;jettySize=auto;html=1;entryX=1;entryY=0.5;entryDx=0;entryDy=0;" edge="1" parent="1" source="l-MEXNuIdmN8-d6I6jXL-2" target="IFX9tUCQLyoy-UFvelIa-11">
          <mxGeometry relative="1" as="geometry" />
        </mxCell>
        <mxCell id="l-MEXNuIdmN8-d6I6jXL-2" value="Plant Species&lt;div&gt;Yolo 11 s&lt;/div&gt;" style="rounded=1;whiteSpace=wrap;html=1;" vertex="1" parent="1">
          <mxGeometry x="1010" y="50" width="120" height="60" as="geometry" />
        </mxCell>
        <mxCell id="l-MEXNuIdmN8-d6I6jXL-5" style="edgeStyle=orthogonalEdgeStyle;rounded=0;orthogonalLoop=1;jettySize=auto;html=1;entryX=1;entryY=0.5;entryDx=0;entryDy=0;" edge="1" parent="1" source="l-MEXNuIdmN8-d6I6jXL-3" target="IFX9tUCQLyoy-UFvelIa-11">
          <mxGeometry relative="1" as="geometry" />
        </mxCell>
        <mxCell id="l-MEXNuIdmN8-d6I6jXL-3" value="Plant Disease&lt;div&gt;Yolo 11 m/l&lt;/div&gt;" style="rounded=1;whiteSpace=wrap;html=1;" vertex="1" parent="1">
          <mxGeometry x="1010" y="210" width="120" height="60" as="geometry" />
        </mxCell>
        <mxCell id="l-MEXNuIdmN8-d6I6jXL-6" value="Local LLM - Ollama&lt;div&gt;llama 3.3 / Qwen 2.5&lt;/div&gt;" style="rounded=1;whiteSpace=wrap;html=1;" vertex="1" parent="1">
          <mxGeometry x="1010" y="330" width="120" height="60" as="geometry" />
        </mxCell>
        <mxCell id="l-MEXNuIdmN8-d6I6jXL-7" value="RAG&lt;div&gt;AnythingLLM set-up&lt;/div&gt;" style="rounded=1;whiteSpace=wrap;html=1;" vertex="1" parent="1">
          <mxGeometry x="1010" y="490" width="120" height="60" as="geometry" />
        </mxCell>
        <mxCell id="l-MEXNuIdmN8-d6I6jXL-9" value="" style="shape=flexArrow;endArrow=classic;startArrow=classic;html=1;rounded=0;entryX=0.5;entryY=0;entryDx=0;entryDy=0;exitX=0.5;exitY=1;exitDx=0;exitDy=0;" edge="1" parent="1" source="l-MEXNuIdmN8-d6I6jXL-6" target="l-MEXNuIdmN8-d6I6jXL-7">
          <mxGeometry width="100" height="100" relative="1" as="geometry">
            <mxPoint x="1000" y="500" as="sourcePoint" />
            <mxPoint x="1100" y="400" as="targetPoint" />
          </mxGeometry>
        </mxCell>
      </root>
    </mxGraphModel>
  </diagram>
</mxfile>
